<svg xmlns="http://www.w3.org/2000/svg" version="1.1" xmlns:xlink="http://www.w3.org/1999/xlink" xmlns:svgjs="http://svgjs.dev/svgjs" width="1440" height="560" preserveAspectRatio="none" viewBox="0 0 1440 560">
    <g mask="url(&quot;#SvgjsMask1017&quot;)" fill="none">
        <rect width="1440" height="560" x="0" y="0" fill="url(&quot;#SvgjsLinearGradient1018&quot;)"></rect>
        <path d="M1440 0L1170.56 0L1440 39.54z" fill="rgba(255, 255, 255, .1)"></path>
        <path d="M1170.56 0L1440 39.54L1440 225.85999999999999L851.54 0z" fill="rgba(255, 255, 255, .075)"></path>
        <path d="M851.54 0L1440 225.85999999999999L1440 324.59L822.1999999999999 0z" fill="rgba(255, 255, 255, .05)"></path>
        <path d="M822.1999999999999 0L1440 324.59L1440 411.09L473.55999999999995 0z" fill="rgba(255, 255, 255, .025)"></path>
        <path d="M0 560L338.02 560L0 449.24z" fill="rgba(0, 0, 0, .1)"></path>
        <path d="M0 449.24L338.02 560L424.39 560L0 281.85z" fill="rgba(0, 0, 0, .075)"></path>
        <path d="M0 281.85L424.39 560L726.88 560L0 143.97000000000003z" fill="rgba(0, 0, 0, .05)"></path>
        <path d="M0 143.97000000000003L726.88 560L1161.3600000000001 560L0 129.86z" fill="rgba(0, 0, 0, .025)"></path>
    </g>
    <defs>
        <mask id="SvgjsMask1017">
            <rect width="1440" height="560" fill="#ffffff"></rect>
        </mask>
        <linearGradient x1="15.28%" y1="-39.29%" x2="84.72%" y2="139.29%" gradientUnits="userSpaceOnUse" id="SvgjsLinearGradient1018">
            <stop stop-color="#0e2a47" offset="0"></stop>
            <stop stop-color="rgba(0, 0, 0, 1)" offset="1"></stop>
        </linearGradient>
    </defs>
</svg>